<?xml version="1.0" encoding="UTF-8" standalone="no"?>
<!DOCTYPE svg PUBLIC "-//W3C//DTD SVG 1.1//EN"
 "http://www.w3.org/Graphics/SVG/1.1/DTD/svg11.dtd">
<!-- Generated by graphviz version 2.38.0 (20140413.2041)
 -->
<!-- Title: G Pages: 1 -->
<svg width="72pt" height="70pt"
 viewBox="0.00 0.00 72.00 70.41" xmlns="http://www.w3.org/2000/svg" xmlns:xlink="http://www.w3.org/1999/xlink">
<g id="graph0" class="graph" transform="scale(0.325804 0.325804) rotate(0) translate(9 209.556)">
<title>G</title>
<polygon fill="none" stroke="none" points="-9,6.56436 -9,-209.556 211.992,-209.556 211.992,6.56436 -9,6.56436"/>
<!-- node0000 -->
<g id="node1" class="node"><title>node0000</title>
<ellipse fill="#e37222" stroke="black" stroke-width="5" cx="27" cy="-104.935" rx="27" ry="27"/>
</g>
<!-- node0001 -->
<g id="node2" class="node"><title>node0001</title>
<ellipse fill="#009aa6" stroke="black" stroke-width="5" cx="61.5575" cy="-32.8164" rx="27" ry="27"/>
</g>
<!-- node0000&#45;&#45;node0001 -->
<g id="edge1" class="edge"><title>node0000&#45;&#45;node0001</title>
<path fill="none" stroke="black" stroke-width="5" d="M38.6996,-80.5189C42.3025,-73 46.2679,-64.7245 49.8699,-57.2073"/>
</g>
<!-- node0005 -->
<g id="node6" class="node"><title>node0005</title>
<ellipse fill="#009aa6" stroke="black" stroke-width="5" cx="67.0291" cy="-173.556" rx="27" ry="27"/>
</g>
<!-- node0000&#45;&#45;node0005 -->
<g id="edge2" class="edge"><title>node0000&#45;&#45;node0005</title>
<path fill="none" stroke="black" stroke-width="5" d="M40.7758,-128.55C44.8465,-135.529 49.2998,-143.163 53.3636,-150.13"/>
</g>
<!-- node0006 -->
<g id="node7" class="node"><title>node0006</title>
<ellipse fill="#e37222" stroke="black" stroke-width="5" cx="101.487" cy="-101.455" rx="27" ry="27"/>
</g>
<!-- node0000&#45;&#45;node0006 -->
<g id="edge3" class="edge"><title>node0000&#45;&#45;node0006</title>
<path fill="none" stroke="black" stroke-width="5" d="M54.3134,-103.659C60.7907,-103.356 67.7002,-103.034 74.1773,-102.731"/>
</g>
<!-- node0002 -->
<g id="node3" class="node"><title>node0002</title>
<ellipse fill="#e37222" stroke="black" stroke-width="5" cx="136.085" cy="-29.4356" rx="27" ry="27"/>
</g>
<!-- node0001&#45;&#45;node0002 -->
<g id="edge4" class="edge"><title>node0001&#45;&#45;node0002</title>
<path fill="none" stroke="black" stroke-width="5" d="M88.8854,-31.5767C95.3661,-31.2827 102.279,-30.9691 108.76,-30.6752"/>
</g>
<!-- node0001&#45;&#45;node0006 -->
<g id="edge5" class="edge"><title>node0001&#45;&#45;node0006</title>
<path fill="none" stroke="black" stroke-width="5" d="M75.2991,-56.438C79.3598,-63.4182 83.802,-71.0544 87.8557,-78.0227"/>
</g>
<!-- node0003 -->
<g id="node4" class="node"><title>node0003</title>
<ellipse fill="#009aa6" stroke="black" stroke-width="5" cx="175.992" cy="-98.0951" rx="27" ry="27"/>
</g>
<!-- node0002&#45;&#45;node0003 -->
<g id="edge6" class="edge"><title>node0002&#45;&#45;node0003</title>
<path fill="none" stroke="black" stroke-width="5" d="M149.818,-53.0643C153.877,-60.0466 158.317,-67.6851 162.368,-74.6555"/>
</g>
<!-- node0002&#45;&#45;node0006 -->
<g id="edge7" class="edge"><title>node0002&#45;&#45;node0006</title>
<path fill="none" stroke="black" stroke-width="5" d="M124.372,-53.8182C120.765,-61.3268 116.795,-69.5909 113.188,-77.0978"/>
</g>
<!-- node0004 -->
<g id="node5" class="node"><title>node0004</title>
<ellipse fill="#e37222" stroke="black" stroke-width="5" cx="141.504" cy="-170.103" rx="27" ry="27"/>
</g>
<!-- node0003&#45;&#45;node0004 -->
<g id="edge8" class="edge"><title>node0003&#45;&#45;node0004</title>
<path fill="none" stroke="black" stroke-width="5" d="M164.316,-122.474C160.72,-129.981 156.763,-138.244 153.168,-145.75"/>
</g>
<!-- node0003&#45;&#45;node0006 -->
<g id="edge9" class="edge"><title>node0003&#45;&#45;node0006</title>
<path fill="none" stroke="black" stroke-width="5" d="M148.672,-99.3273C142.194,-99.6194 135.282,-99.9311 128.804,-100.223"/>
</g>
<!-- node0004&#45;&#45;node0005 -->
<g id="edge10" class="edge"><title>node0004&#45;&#45;node0005</title>
<path fill="none" stroke="black" stroke-width="5" d="M114.195,-171.369C107.719,-171.67 100.811,-171.99 94.3346,-172.29"/>
</g>
<!-- node0004&#45;&#45;node0006 -->
<g id="edge11" class="edge"><title>node0004&#45;&#45;node0006</title>
<path fill="none" stroke="black" stroke-width="5" d="M127.733,-146.479C123.663,-139.497 119.211,-131.86 115.149,-124.891"/>
</g>
<!-- node0005&#45;&#45;node0006 -->
<g id="edge12" class="edge"><title>node0005&#45;&#45;node0006</title>
<path fill="none" stroke="black" stroke-width="5" d="M78.6951,-149.146C82.2877,-141.629 86.2417,-133.356 89.8334,-125.84"/>
</g>
</g>
</svg>
