<?xml version="1.0" encoding="UTF-8" standalone="no"?>
<!DOCTYPE svg PUBLIC "-//W3C//DTD SVG 1.1//EN"
 "http://www.w3.org/Graphics/SVG/1.1/DTD/svg11.dtd">
<!-- Generated by graphviz version 2.44.1 (20200629.0846)
 -->
<!-- Title: G Pages: 1 -->
<svg width="176pt" height="188pt"
 viewBox="0.00 0.00 176.00 188.00" xmlns="http://www.w3.org/2000/svg" xmlns:xlink="http://www.w3.org/1999/xlink">
<g id="graph0" class="graph" transform="scale(1 1) rotate(0) translate(4 184)">
<title>G</title>
<polygon fill="white" stroke="transparent" points="-4,4 -4,-184 172,-184 172,4 -4,4"/>
<!-- node0000 -->
<g id="node1" class="node">
<title>node0000</title>
<polygon fill="none" stroke="black" points="77,-180 0,-180 0,-144 77,-144 77,-180"/>
<text text-anchor="middle" x="38.5" y="-158.3" font-family="Lato" font-size="14.00">NetworkX</text>
</g>
<!-- node0001 -->
<g id="node2" class="node">
<title>node0001</title>
<ellipse fill="none" stroke="black" cx="84.5" cy="-90" rx="18" ry="18"/>
<text text-anchor="middle" x="84.5" y="-86.3" font-family="Lato" font-size="14.00">+</text>
</g>
<!-- node0000&#45;&gt;node0001 -->
<g id="edge1" class="edge">
<title>node0000&#45;&gt;node0001</title>
<path fill="none" stroke="black" d="M49.87,-143.7C55.74,-134.77 62.97,-123.76 69.31,-114.11"/>
<polygon fill="black" stroke="black" points="72.25,-116.02 74.81,-105.74 66.4,-112.17 72.25,-116.02"/>
</g>
<!-- node0003 -->
<g id="node4" class="node">
<title>node0003</title>
<polygon fill="none" stroke="black" points="111.5,-36 57.5,-36 57.5,0 111.5,0 111.5,-36"/>
<text text-anchor="middle" x="84.5" y="-14.3" font-family="Lato" font-size="14.00">nxv</text>
</g>
<!-- node0001&#45;&gt;node0003 -->
<g id="edge2" class="edge">
<title>node0001&#45;&gt;node0003</title>
<path fill="none" stroke="black" d="M84.5,-71.7C84.5,-63.98 84.5,-54.71 84.5,-46.11"/>
<polygon fill="black" stroke="black" points="88,-46.1 84.5,-36.1 81,-46.1 88,-46.1"/>
</g>
<!-- node0002 -->
<g id="node3" class="node">
<title>node0002</title>
<polygon fill="none" stroke="black" points="168,-180 95,-180 95,-144 168,-144 168,-180"/>
<text text-anchor="middle" x="131.5" y="-158.3" font-family="Lato" font-size="14.00">GraphViz</text>
</g>
<!-- node0002&#45;&gt;node0001 -->
<g id="edge3" class="edge">
<title>node0002&#45;&gt;node0001</title>
<path fill="none" stroke="black" d="M119.88,-143.7C113.8,-134.65 106.29,-123.45 99.75,-113.71"/>
<polygon fill="black" stroke="black" points="102.57,-111.63 94.09,-105.28 96.76,-115.53 102.57,-111.63"/>
</g>
</g>
</svg>
