<?xml version="1.0" encoding="UTF-8" standalone="no"?>
<!DOCTYPE svg PUBLIC "-//W3C//DTD SVG 1.1//EN"
 "http://www.w3.org/Graphics/SVG/1.1/DTD/svg11.dtd">
<!-- Generated by graphviz version 2.44.1 (20200629.0846)
 -->
<!-- Title: G Pages: 1 -->
<svg width="318pt" height="98pt"
 viewBox="0.00 0.00 318.00 98.00" xmlns="http://www.w3.org/2000/svg" xmlns:xlink="http://www.w3.org/1999/xlink">
<g id="graph0" class="graph" transform="scale(1 1) rotate(0) translate(4 94)">
<title>G</title>
<polygon fill="white" stroke="transparent" points="-4,4 -4,-94 314,-94 314,4 -4,4"/>
<!-- node0000 -->
<g id="node1" class="node">
<title>node0000</title>
<ellipse fill="none" stroke="black" cx="18" cy="-37" rx="18" ry="18"/>
<text text-anchor="middle" x="18" y="-33.3" font-family="Times New Roman,serif" font-size="14.00">A</text>
</g>
<!-- node0001 -->
<g id="node2" class="node">
<title>node0001</title>
<polygon fill="none" stroke="black" points="127,-55 91,-55 91,-19 127,-19 127,-55"/>
<text text-anchor="middle" x="109" y="-33.3" font-family="Times New Roman,serif" font-size="14.00">B</text>
</g>
<!-- node0000&#45;&#45;node0001 -->
<g id="edge1" class="edge">
<title>node0000&#45;&#45;node0001</title>
<path fill="none" stroke="black" stroke-dasharray="5,2" d="M36.16,-37C51.92,-37 75.15,-37 90.89,-37"/>
<text text-anchor="middle" x="63.5" y="-40.8" font-family="Times New Roman,serif" font-size="14.00">AB</text>
</g>
<!-- node0002 -->
<g id="node3" class="node">
<title>node0002</title>
<polygon fill="none" stroke="black" points="218,-90 182,-90 182,-54 218,-54 218,-90"/>
<text text-anchor="middle" x="200" y="-68.3" font-family="Times New Roman,serif" font-size="14.00">C</text>
</g>
<!-- node0001&#45;&#45;node0002 -->
<g id="edge2" class="edge">
<title>node0001&#45;&#45;node0002</title>
<path fill="none" stroke="black" stroke-dasharray="5,2" d="M127.16,-43.75C142.92,-49.95 166.15,-59.08 181.89,-65.27"/>
<text text-anchor="middle" x="154.5" y="-61.8" font-family="Times New Roman,serif" font-size="14.00">BC</text>
</g>
<!-- node0004 -->
<g id="node5" class="node">
<title>node0004</title>
<ellipse fill="none" stroke="black" cx="200" cy="-18" rx="18" ry="18"/>
<text text-anchor="middle" x="200" y="-14.3" font-family="Times New Roman,serif" font-size="14.00">E</text>
</g>
<!-- node0001&#45;&#45;node0004 -->
<g id="edge3" class="edge">
<title>node0001&#45;&#45;node0004</title>
<path fill="none" stroke="black" stroke-dasharray="5,2" d="M127.35,-31.62C132.95,-30 139.21,-28.31 145,-27 157.24,-24.24 171.21,-21.93 181.88,-20.35"/>
<text text-anchor="middle" x="154.5" y="-30.8" font-family="Times New Roman,serif" font-size="14.00">BE</text>
</g>
<!-- node0003 -->
<g id="node4" class="node">
<title>node0003</title>
<polygon fill="none" stroke="black" points="310,-90 274,-90 274,-54 310,-54 310,-90"/>
<text text-anchor="middle" x="292" y="-68.3" font-family="Times New Roman,serif" font-size="14.00">D</text>
</g>
<!-- node0002&#45;&#45;node0003 -->
<g id="edge4" class="edge">
<title>node0002&#45;&#45;node0003</title>
<path fill="none" stroke="black" stroke-dasharray="5,2" d="M218.35,-72C234.29,-72 257.78,-72 273.7,-72"/>
<text text-anchor="middle" x="246" y="-75.8" font-family="Times New Roman,serif" font-size="14.00">CD</text>
</g>
</g>
</svg>
