<?xml version="1.0" encoding="UTF-8" standalone="no"?>
<!DOCTYPE svg PUBLIC "-//W3C//DTD SVG 1.1//EN"
 "http://www.w3.org/Graphics/SVG/1.1/DTD/svg11.dtd">
<!-- Generated by graphviz version 2.44.1 (20200629.0846)
 -->
<!-- Title: G Pages: 1 -->
<svg width="260pt" height="98pt"
 viewBox="0.00 0.00 260.00 98.00" xmlns="http://www.w3.org/2000/svg" xmlns:xlink="http://www.w3.org/1999/xlink">
<g id="graph0" class="graph" transform="scale(1 1) rotate(0) translate(4 94)">
<title>G</title>
<polygon fill="white" stroke="transparent" points="-4,4 -4,-94 256,-94 256,4 -4,4"/>
<!-- node0000 -->
<g id="node1" class="node">
<title>node0000</title>
<polygon fill="none" stroke="black" points="36,-63 0,-63 0,-27 36,-27 36,-63"/>
<text text-anchor="middle" x="18" y="-41.3" font-family="Times New Roman,serif" font-size="14.00">A</text>
</g>
<!-- node0001 -->
<g id="node2" class="node">
<title>node0001</title>
<polygon fill="none" stroke="black" points="108,-63 72,-63 72,-27 108,-27 108,-63"/>
<text text-anchor="middle" x="90" y="-41.3" font-family="Times New Roman,serif" font-size="14.00">B</text>
</g>
<!-- node0000&#45;&#45;node0001 -->
<g id="edge1" class="edge">
<title>node0000&#45;&#45;node0001</title>
<path fill="none" stroke="black" stroke-dasharray="5,2" d="M36.3,-45C47.15,-45 61.08,-45 71.9,-45"/>
</g>
<!-- node0002 -->
<g id="node3" class="node">
<title>node0002</title>
<polygon fill="none" stroke="black" points="180,-90 144,-90 144,-54 180,-54 180,-90"/>
<text text-anchor="middle" x="162" y="-68.3" font-family="Times New Roman,serif" font-size="14.00">C</text>
</g>
<!-- node0001&#45;&#45;node0002 -->
<g id="edge2" class="edge">
<title>node0001&#45;&#45;node0002</title>
<path fill="none" stroke="black" stroke-dasharray="5,2" d="M108.3,-51.67C119.15,-55.86 133.08,-61.23 143.9,-65.4"/>
</g>
<!-- node0004 -->
<g id="node5" class="node">
<title>node0004</title>
<polygon fill="none" stroke="black" points="180,-36 144,-36 144,0 180,0 180,-36"/>
<text text-anchor="middle" x="162" y="-14.3" font-family="Times New Roman,serif" font-size="14.00">E</text>
</g>
<!-- node0001&#45;&#45;node0004 -->
<g id="edge3" class="edge">
<title>node0001&#45;&#45;node0004</title>
<path fill="none" stroke="black" stroke-dasharray="5,2" d="M108.3,-38.33C119.15,-34.14 133.08,-28.77 143.9,-24.6"/>
</g>
<!-- node0003 -->
<g id="node4" class="node">
<title>node0003</title>
<polygon fill="none" stroke="black" points="252,-90 216,-90 216,-54 252,-54 252,-90"/>
<text text-anchor="middle" x="234" y="-68.3" font-family="Times New Roman,serif" font-size="14.00">D</text>
</g>
<!-- node0002&#45;&#45;node0003 -->
<g id="edge4" class="edge">
<title>node0002&#45;&#45;node0003</title>
<path fill="none" stroke="black" stroke-dasharray="5,2" d="M180.3,-72C191.15,-72 205.08,-72 215.9,-72"/>
</g>
</g>
</svg>
